<svg width="395" height="122" viewBox="0 0 395 122" fill="none" xmlns="http://www.w3.org/2000/svg">
<path d="M394 61C394 68.9508 388.78 76.7139 378.89 83.9364C369.02 91.1432 354.675 97.6752 336.858 103.178C301.238 114.18 251.967 121 197.5 121C143.033 121 93.7625 114.18 58.1415 103.178C40.325 97.6752 25.9796 91.1432 16.1103 83.9364C6.21961 76.7139 1 68.9508 1 61C1 53.0492 6.21961 45.2861 16.1103 38.0636C25.9796 30.8568 40.325 24.3248 58.1415 18.822C93.7625 7.82003 143.033 1 197.5 1C251.967 1 301.238 7.82003 336.858 18.822C354.675 24.3248 369.02 30.8568 378.89 38.0636C388.78 45.2861 394 53.0492 394 61Z" stroke="white" stroke-width="2"/>
</svg>
