<svg width="99" height="63" viewBox="0 0 99 63" fill="none" xmlns="http://www.w3.org/2000/svg">
<path d="M42.5 31.5C42.5 40.1111 40.1168 47.885 36.2898 53.492C32.4611 59.1015 27.2233 62.5 21.5 62.5C15.7767 62.5 10.5389 59.1015 6.71018 53.492C2.88316 47.885 0.5 40.1111 0.5 31.5C0.5 22.8889 2.88316 15.115 6.71018 9.50801C10.5389 3.89849 15.7767 0.5 21.5 0.5C27.2233 0.5 32.4611 3.89849 36.2898 9.50801C40.1168 15.115 42.5 22.8889 42.5 31.5Z" fill="white" stroke="white"/>
<path d="M98.5 31.5C98.5 40.1111 96.1168 47.885 92.2898 53.492C88.4611 59.1015 83.2233 62.5 77.5 62.5C71.7767 62.5 66.5389 59.1015 62.7102 53.492C58.8832 47.885 56.5 40.1111 56.5 31.5C56.5 22.8889 58.8832 15.115 62.7102 9.50801C66.5389 3.89849 71.7767 0.5 77.5 0.5C83.2233 0.5 88.4611 3.89849 92.2898 9.50801C96.1168 15.115 98.5 22.8889 98.5 31.5Z" fill="white" stroke="white"/>
<ellipse cx="28" cy="43" rx="12" ry="13" fill="black"/>
<ellipse cx="84" cy="43" rx="12" ry="13" fill="black"/>
</svg>
